<?xml version="1.0" standalone="no"?>
<!DOCTYPE svg PUBLIC "-//W3C//DTD SVG 20010904//EN"
 "http://www.w3.org/TR/2001/REC-SVG-20010904/DTD/svg10.dtd">
<svg version="1.0" xmlns="http://www.w3.org/2000/svg"
 width="512.000000pt" height="512.000000pt" viewBox="0 0 512.000000 512.000000"
 preserveAspectRatio="xMidYMid meet">
<metadata>
Created by potrace 1.14, written by Peter Selinger 2001-2017
</metadata>
<g transform="translate(0.000000,512.000000) scale(0.100000,-0.100000)"
fill="#000000" stroke="none">
<path d="M762 4367 c-622 -623 -742 -746 -742 -770 0 -15 -4 -27 -10 -27 -6 0
-10 -60 -10 -160 0 -100 4 -160 10 -160 6 0 10 -9 10 -20 0 -19 5 -21 58 -18
l57 3 3 104 c1 58 7 110 13 117 5 6 45 14 90 16 44 3 85 10 91 16 7 7 19 12
28 12 32 0 50 34 50 92 0 36 4 58 13 60 9 3 13 44 15 146 l4 142 24 0 c19 0
24 -5 24 -25 0 -16 6 -25 15 -25 10 0 15 -10 15 -31 0 -23 5 -32 21 -36 19 -5
20 -11 14 -57 -4 -28 -11 -52 -16 -54 -13 -5 -11 -36 4 -50 7 -8 12 -39 12
-71 1 -68 15 -91 57 -91 16 0 31 -6 34 -15 5 -11 23 -15 75 -15 49 0 78 -5
102 -19 20 -11 44 -17 60 -14 24 5 26 10 29 57 3 47 5 51 31 54 23 3 27 8 27
33 0 17 7 37 15 45 8 9 15 24 15 35 0 10 5 19 10 19 6 0 10 11 10 25 0 16 6
25 15 25 8 0 15 9 15 20 0 15 7 20 29 20 37 0 41 12 41 121 l0 89 85 0 85 0 0
-124 c0 -74 4 -127 10 -131 6 -4 8 -11 4 -16 -18 -30 52 -53 76 -24 7 8 27 15
45 15 l32 0 6 68 c4 37 7 112 7 167 0 113 6 125 60 125 20 0 41 -5 48 -12 8
-8 12 -55 12 -144 0 -73 4 -134 9 -136 10 -3 16 -66 13 -140 l-2 -48 -265 0
c-299 0 -305 -1 -376 -77 -68 -72 -69 -77 -69 -364 0 -178 4 -267 12 -286 24
-56 81 -115 134 -140 l53 -24 373 3 c418 3 399 0 474 80 66 69 74 109 74 368
0 261 -8 298 -77 368 -61 60 -94 72 -209 72 l-96 0 4 309 c4 349 2 341 80 341
67 -1 81 -17 73 -84 -8 -60 1 -70 38 -42 13 11 17 29 17 90 0 85 23 156 51
156 9 0 35 -18 58 -40 l41 -40 0 -193 c0 -242 10 -467 22 -467 4 0 8 95 8 210
0 133 4 210 10 210 6 0 10 7 10 16 0 9 7 30 15 47 9 19 18 83 22 157 7 116 9
125 28 125 19 0 20 -8 25 -126 4 -91 9 -131 20 -144 8 -10 13 -20 12 -22 -2
-3 -1 -7 2 -10 3 -4 6 14 6 38 0 25 6 51 12 57 8 8 14 53 16 117 4 103 5 105
28 105 23 0 24 3 24 68 0 56 4 72 20 87 11 10 20 26 20 37 0 15 8 18 55 18 40
0 55 -4 55 -14 0 -7 9 -24 19 -38 14 -17 21 -44 23 -84 3 -50 6 -60 26 -69 20
-9 22 -16 22 -96 l0 -87 25 11 c22 11 25 18 23 57 -3 43 -2 45 27 50 l30 5 3
88 c3 79 5 87 22 87 18 0 20 -7 20 -90 l0 -90 30 0 c29 0 30 -1 30 -50 0 -38
4 -50 15 -50 11 0 15 -12 15 -44 0 -25 5 -48 10 -51 6 -4 10 -59 10 -132 0
-107 2 -124 14 -114 11 10 15 61 18 249 4 235 4 237 31 285 15 26 27 57 27 68
0 12 7 19 20 19 13 0 20 -7 20 -19 0 -11 5 -23 10 -26 6 -3 10 -14 10 -24 0
-10 9 -30 20 -44 19 -24 20 -40 20 -259 l0 -235 24 -22 c18 -17 41 -24 85 -28
l61 -6 0 181 c0 113 4 183 10 187 6 4 10 12 9 18 -2 13 6 37 24 75 20 42 53
23 61 -38 2 -8 8 -28 15 -45 7 -16 14 -59 14 -95 l2 -64 55 3 c30 1 58 5 62 7
5 3 8 140 8 305 0 276 1 300 18 306 28 11 38 26 45 67 3 22 12 43 18 47 8 5
14 47 17 123 4 114 5 116 28 116 24 0 24 -2 24 -92 0 -64 5 -102 16 -123 8
-16 18 -48 21 -72 3 -24 10 -43 14 -43 5 0 9 -11 9 -25 0 -18 5 -25 20 -25 16
0 20 -7 20 -35 0 -19 5 -35 10 -35 6 0 10 -93 10 -259 l0 -259 23 -6 c12 -3
32 -6 45 -6 21 0 22 -4 22 -75 0 -41 4 -75 10 -75 10 0 4 419 -7 447 -3 8 0
25 7 38 8 16 11 43 7 79 -3 31 -1 58 4 61 5 4 9 19 9 35 0 16 4 31 9 34 4 3
11 28 15 55 4 28 11 53 17 57 6 3 9 20 7 37 -2 26 1 32 17 32 16 0 21 -9 26
-43 3 -23 11 -48 17 -54 7 -7 12 -26 12 -43 0 -17 5 -36 10 -41 6 -6 13 -48
16 -95 3 -46 9 -93 14 -104 5 -11 10 -150 13 -309 2 -212 6 -291 15 -294 8 -2
12 -28 12 -73 0 -67 1 -69 20 -59 17 9 20 21 20 70 0 32 4 61 9 64 4 3 11 31
14 61 7 72 19 85 74 85 37 0 50 -5 73 -30 29 -31 28 -28 43 -210 1 -18 9 -26
25 -28 21 -3 22 0 22 57 l0 61 43 0 c43 0 77 -21 77 -48 0 -7 7 -12 15 -12 10
0 15 10 15 30 0 28 3 30 34 30 19 0 38 5 41 10 3 6 17 10 30 10 13 0 27 -4 30
-10 3 -5 39 -10 78 -10 l72 -1 18 -38 c9 -20 17 -50 17 -64 0 -24 3 -27 26
-21 18 5 32 0 50 -17 22 -21 24 -29 24 -125 0 -58 4 -106 10 -109 10 -6 15
-1756 6 -1766 -2 -2 -295 -3 -650 -1 l-646 2 0 149 0 149 178 4 c200 4 226 11
302 89 98 101 92 286 -12 386 -69 67 -98 73 -345 73 l-223 0 0 -425 0 -425
-151 0 -151 0 53 47 c106 96 151 205 152 368 0 144 -37 248 -121 337 -59 64
-110 93 -195 112 -158 37 -307 4 -408 -91 -98 -92 -140 -199 -140 -358 1 -172
39 -265 149 -366 l54 -49 -276 0 -276 0 0 390 c0 305 3 390 13 390 6 1 75 2
152 3 l140 2 3 33 3 32 -366 0 -366 0 3 -32 3 -33 150 0 c83 0 152 -3 155 -7
3 -3 4 -180 2 -392 l-2 -386 -228 0 -227 0 38 31 c57 47 81 101 81 179 -1 81
-20 119 -81 164 -46 33 -180 82 -278 101 -56 11 -73 17 -123 41 -35 17 -57 35
-64 53 -6 14 -15 36 -21 48 -7 15 -7 26 0 35 6 7 14 27 17 44 7 32 47 69 100
91 15 7 65 13 110 13 122 -1 209 -46 222 -117 6 -32 7 -33 56 -33 l50 0 -7 33
c-30 136 -234 228 -413 186 -126 -29 -200 -90 -228 -186 -16 -56 -9 -109 24
-166 21 -35 117 -91 192 -111 30 -8 69 -19 85 -25 17 -5 60 -17 98 -27 87 -21
142 -61 158 -113 23 -79 -12 -150 -94 -190 -34 -17 -63 -21 -135 -21 -135 0
-224 42 -255 118 -14 35 -17 37 -56 36 -23 -1 -44 -4 -47 -7 -13 -13 41 -110
80 -142 l41 -35 -550 0 c-441 -1 -553 -3 -568 -14 -19 -14 -25 -96 -7 -96 6 0
10 -6 10 -13 0 -6 333 -345 740 -752 l740 -740 1050 -3 1049 -2 180 180 c99
99 183 180 188 180 11 0 393 383 393 394 0 12 99 108 124 121 12 6 30 24 41
41 11 17 32 38 48 47 15 9 27 23 27 30 0 8 9 17 21 20 11 3 23 15 26 26 3 11
10 18 15 15 5 -3 12 3 15 15 3 12 10 21 17 21 6 0 100 89 209 198 l197 197 0
1060 0 1060 -743 743 -742 742 -1055 0 -1055 0 -743 -743z m1039 -1019 c2 -7
2 -116 -1 -243 l-5 -230 -320 -3 c-176 -1 -330 0 -342 3 l-23 5 0 234 c0 128
3 236 7 239 3 4 158 7 344 7 261 0 338 -3 340 -12z m1274 -943 c132 -65 203
-238 177 -426 -15 -101 -52 -178 -114 -234 -57 -51 -117 -70 -218 -69 -171 2
-282 107 -311 293 -33 216 56 400 219 452 49 15 203 6 247 -16z m825 -9 c82
-43 114 -100 108 -192 -5 -78 -38 -133 -100 -163 -39 -19 -62 -21 -196 -21
l-152 0 0 201 0 201 153 -4 c122 -3 159 -7 187 -22z m-2134 -892 c87 -35 134
-117 134 -233 0 -159 -82 -251 -223 -251 -89 0 -132 17 -180 70 -111 124 -79
335 62 410 46 24 153 27 207 4z m2692 -3 c59 -30 92 -74 92 -121 l0 -40 -60 0
c-45 0 -60 3 -60 14 0 38 -79 62 -119 37 -28 -18 -1 -38 83 -61 61 -16 97 -32
123 -55 37 -32 38 -35 37 -99 0 -60 -3 -68 -33 -97 -44 -41 -89 -59 -153 -59
-74 0 -117 14 -161 54 -34 30 -39 40 -40 83 l-2 48 55 0 c47 0 56 -3 66 -24
17 -33 32 -41 80 -41 38 0 64 13 64 32 0 12 -80 47 -110 49 -38 1 -102 40
-127 78 -48 71 -18 157 72 204 43 23 146 22 193 -2z m-3581 -2 c65 -24 103
-85 103 -165 0 -49 -3 -57 -44 -100 -42 -44 -48 -47 -113 -54 -37 -4 -74 -5
-80 -2 -10 3 -13 -15 -13 -70 0 -41 -2 -77 -4 -79 -2 -2 -32 -2 -65 -1 l-61 4
0 239 0 239 124 0 c69 0 137 -5 153 -11z m426 -3 c101 -43 129 -175 53 -249
l-33 -32 48 -78 c68 -109 68 -111 -11 -108 -61 2 -90 13 -90 32 0 4 -16 35
-36 68 -31 52 -41 61 -65 61 l-29 0 3 -77 2 -78 -62 -3 -63 -3 0 241 0 240
125 0 c84 0 136 -5 158 -14z m939 -8 c61 -35 81 -75 76 -156 -3 -62 -6 -70
-40 -104 -28 -27 -51 -39 -93 -48 -31 -6 -67 -9 -80 -6 -28 7 -37 -13 -35 -77
3 -75 6 -72 -60 -72 l-60 0 0 243 0 242 126 0 c112 0 131 -3 166 -22z m458
-33 l0 -55 -105 0 -105 0 0 -35 0 -35 100 0 100 0 0 -55 0 -55 -100 0 -100 0
0 -40 0 -40 105 0 105 0 0 -55 0 -55 -165 0 -165 0 0 240 0 240 165 0 165 0 0
-55z m367 29 c38 -28 63 -80 63 -132 0 -48 -11 -75 -47 -113 l-24 -26 50 -84
c28 -46 51 -87 51 -91 0 -5 -30 -8 -67 -8 l-68 0 -41 78 c-37 68 -45 77 -73
80 l-31 3 0 -80 0 -81 -60 0 -60 0 0 241 0 241 139 -4 c122 -3 143 -6 168 -24z
m488 -29 l0 -50 -65 -1 -65 -1 -3 -187 -2 -187 -58 3 -57 3 -3 183 -2 182 -64
0 c-68 0 -76 6 -76 55 0 57 -4 56 204 53 l191 -3 0 -50z m173 -187 l-3 -243
-65 -3 -65 -3 0 246 0 245 68 0 67 0 -2 -242z m400 185 l3 -52 -108 -3 -108
-3 0 -30 0 -30 103 -3 102 -3 0 -54 0 -54 -102 -3 -103 -3 -3 -32 c-2 -22 1
-33 10 -34 7 0 49 0 93 1 111 2 115 -1 115 -66 l0 -54 -170 0 -170 0 0 233 c0
129 3 237 7 241 4 3 79 5 167 4 l161 -3 3 -52z"/>
<path d="M1605 1378 c-34 -30 -48 -93 -35 -154 13 -58 42 -83 95 -83 45 0 71
15 92 56 17 32 20 136 4 141 -6 2 -11 10 -11 17 0 44 -102 60 -145 23z"/>
<path d="M738 1394 c-5 -4 -8 -29 -8 -56 l0 -48 43 0 c23 0 50 7 60 14 18 14
23 52 9 73 -9 15 -93 29 -104 17z"/>
<path d="M1147 1393 c-4 -3 -7 -24 -7 -45 l0 -38 54 0 c60 0 82 16 72 54 -4
16 -15 25 -37 30 -41 8 -74 8 -82 -1z"/>
<path d="M2075 1377 c-4 -13 -5 -38 -3 -53 3 -25 8 -29 40 -32 54 -5 78 12 78
53 0 40 -4 43 -64 51 -42 6 -45 5 -51 -19z"/>
<path d="M2880 1355 l0 -45 55 0 c44 0 56 4 65 20 24 45 -10 70 -91 70 -28 0
-29 -2 -29 -45z"/>
<path d="M2105 3548 c-3 -7 -4 -206 -3 -443 l3 -430 100 0 100 0 2 284 c1 156
4 286 7 288 9 10 63 -35 519 -431 l168 -146 110 0 109 0 0 445 0 446 -107 -3
-108 -3 -2 -279 c-1 -153 -4 -280 -6 -283 -6 -6 -76 42 -112 77 -16 16 -77 69
-135 118 -58 49 -175 150 -261 224 -86 74 -164 138 -173 141 -33 13 -206 8
-211 -5z"/>
<path d="M3305 3548 c-3 -7 -4 -206 -3 -443 l3 -430 463 -3 463 -2 -3 97 -3
98 -358 2 c-197 1 -361 4 -364 7 -3 3 -6 35 -7 71 l-2 65 193 0 193 0 0 105 0
105 -192 0 -193 0 2 72 2 73 365 3 366 2 0 95 0 95 -460 0 c-359 0 -462 -3
-465 -12z"/>
</g>
</svg>
